<?xml version="1.0" encoding="UTF-8" standalone="no"?> <!-- Created with Inkscape (http://www.inkscape.org/) --> <svg
   xmlns:dc="http://purl.org/dc/elements/1.1/"
   xmlns:cc="http://creativecommons.org/ns#"
   xmlns:rdf="http://www.w3.org/1999/02/22-rdf-syntax-ns#"
   xmlns:svg="http://www.w3.org/2000/svg"
   xmlns="http://www.w3.org/2000/svg"
   xmlns:sodipodi="http://sodipodi.sourceforge.net/DTD/sodipodi-0.dtd"
   xmlns:inkscape="http://www.inkscape.org/namespaces/inkscape"
   version="1.1"
   id="svg4485"
   width="210"
   height="172"
   viewBox="0 0 210 172"
   sodipodi:docname="floorplan.svg"
   inkscape:version="0.92.1 r15371">
  <metadata
     id="metadata141">
    <rdf:RDF>
      <cc:Work
         rdf:about="">
        <dc:format>image/svg+xml</dc:format>
        <dc:type
           rdf:resource="http://purl.org/dc/dcmitype/StillImage" />
      </cc:Work>
    </rdf:RDF>
  </metadata>
  <defs
     id="defs4489" />
  <sodipodi:namedview
     pagecolor="#ffffff"
     bordercolor="#666666"
     borderopacity="1"
     objecttolerance="10"
     gridtolerance="10000"
     guidetolerance="10000"
     inkscape:pageopacity="0"
     inkscape:pageshadow="2"
     inkscape:window-width="1920"
     inkscape:window-height="1018"
     id="namedview4487"
     showgrid="true"
     inkscape:zoom="3.7057633"
     inkscape:cx="76.773405"
     inkscape:cy="113.15016"
     inkscape:window-x="-8"
     inkscape:window-y="-8"
     inkscape:window-maximized="1"
     inkscape:current-layer="svg4485"
     inkscape:snap-nodes="true"
     inkscape:snap-grids="true"
     inkscape:snap-object-midpoints="true"
     inkscape:snap-global="false"
     inkscape:snap-bbox="false"
     inkscape:object-paths="true"
     inkscape:snap-others="true"
     inkscape:snap-smooth-nodes="false"
     inkscape:snap-midpoints="true"
     inkscape:snap-center="false"
     inkscape:snap-text-baseline="true"
     inkscape:object-nodes="true"
     inkscape:snap-intersection-paths="true">
    <inkscape:grid
       empspacing="1"
       type="xygrid"
       id="grid4496"
       spacingx="1"
       spacingy="1" />
  </sodipodi:namedview>
  <path
     style="fill:#f0f0f0;fill-opacity:1;stroke:none;stroke-width:0;stroke-miterlimit:4;stroke-dasharray:none;stroke-opacity:1"
     d="M 139 4 L 139 8 L 140 8 L 140 28 L 139 28 L 139 43 L 139 52 L 139 63 L 137 63 L 137 64 L 132 64 L 132 63 L 119 63 L 119 64 L 114 64 L 114 63 L 108 63 L 108 64 L 88 64 L 88 45
L 44 45 L 44 61.5 L 44 63 L 44 64.5 L 33 64.5 L 33 63 L 11 63 L 11 110 L 12 110 L 12 123 L 11 123 L 11 141 L 12 141 L 12 153 L 11 153 L 11 162 L 184 162 L 184 154 L 183 154 L 183 140
L 184 140 L 184 137 L 202 137 L 202 131 L 201 131 L 201 117 L 202 117 L 202 114 L 206 114 L 206 91 L 193 91 L 193 63 L 194 63 L 194 57 L 193 57 L 193 18 L 193 15 L 193 9 L 194 9 L
194 4 L 139 4 z "
     id="rect4639" />
  <rect
     style="fill:#c8c8c8;fill-opacity:1;stroke:#B9B9B9;stroke-width:0;stroke-miterlimit:4;stroke-dasharray:none;stroke-opacity:1"
     id="binary_sensor.back_hallway"
     width="50"
     height="8"
     x="37.684437"
     y="130.24086"
     inkscape:label="binary_sensor.back_hallway" />
  <path
     style="fill:#c8c8c8;fill-opacity:1;stroke:#ff0000;stroke-width:0;stroke-miterlimit:4;stroke-dasharray:none;stroke-opacity:1"
     d="m 32.684441,64.240859 v 1 H 12.684442 V 103.24085 H 48.684441 V 89.240859 h -3 v -4 h 1 v -18 h -1 v -2 h -2 v -1 z"
     id="binary_sensor.theatre_room"
     inkscape:label="binary_sensor.theatre_room"
     inkscape:connector-curvature="0" />
  <path
     style="fill:#c8c8c8;fill-opacity:1;stroke:#B9B9B9;stroke-width:0;stroke-miterlimit:4;stroke-dasharray:none;stroke-opacity:1"
     d="m 50.684441,88.240859 v 1 h -2 v 13.999991 h -6 v 17 h 5 v 4 h 9 v 6 h 8 v -6 h 9 v 6 H 114.68444 V 94.240859 h -4 v -6 H 85.684441 v 1 h -5 v -1 z"
     id="binary_sensor.kitchen"
     inkscape:label="binary_sensor.kitchen"
     inkscape:connector-curvature="0" />
  <path
     style="fill:#c8c8c8;fill-opacity:1;stroke:#B9B9B9;stroke-width:0;stroke-miterlimit:4;stroke-dasharray:none;stroke-opacity:1"
     d="m 114.68444,94.240859 v 12.999991 h 7 v 3 h 63 v -1 h 1 v -3 h 1 v -7.999992 h -1 v -3.999999 z"
     id="binary_sensor.front_hallway"
     inkscape:connector-curvature="0" />
  <path
     style="fill:#c8c8c8;fill-opacity:1;stroke:#B9B9B9;stroke-width:0;stroke-miterlimit:4;stroke-dasharray:none;stroke-opacity:1"
     d="m 140.68444,59.240859 v 35 h 45 v -1 h 6 v -3 h 1 v -27 h -1 v -4 z"
     id="binary_sensor.hair_salon"
     inkscape:label="binary_sensor.hair_salon"
     inkscape:connector-curvature="0" />
  <path
     style="fill:#c8c8c8;fill-opacity:1;stroke:#B9B9B9;stroke-width:0;stroke-miterlimit:4;stroke-dasharray:none;stroke-opacity:1"
     d="m 146.68444,110.24085 v 20 h -3 v 30 h 8 v 1 h 22 v -1 h 8 v -6 h 2 v -15 h -2 v -4 h 2 v -4 h -10 v -21 z"
     id="binary_sensor.master_bedroom"
     inkscape:label="binary_sensor.master_bedroom"
     inkscape:connector-curvature="0" />
  <g
     inkscape:groupmode="layer"
     id="layer1"
     inkscape:label="Black"
     transform="translate(0,10)" />
  <path
     style="fill:none;stroke:#B9B9B9;stroke-width:1px;stroke-linecap:butt;stroke-linejoin:miter;stroke-opacity:1"
     d="m 138.98802,4.4938424 h 55 v 4 h -2 v -2 h -51 v 2 h -2 z"
     id="path4528"
     inkscape:connector-curvature="0" />
  <path
     style="fill:none;stroke:#B9B9B9;stroke-width:1px;stroke-linecap:butt;stroke-linejoin:miter;stroke-opacity:1"
     d="m 138.98802,28.493843 h 2 v 22 h -2 z"
     id="path4530"
     inkscape:connector-curvature="0" />
  <path
     style="fill:none;stroke:#B9B9B9;stroke-width:1px;stroke-linecap:butt;stroke-linejoin:miter;stroke-opacity:1"
     d="m 191.98802,57.493843 h 2 v 6 h -2 z"
     id="path4534"
     inkscape:connector-curvature="0" />
  <path
     style="fill:none;stroke:#B9B9B9;stroke-width:1px;stroke-linecap:butt;stroke-linejoin:miter;stroke-opacity:1"
     d="m 138.98802,57.493843 h 2 v 8 h -4 v -2 h 2 z"
     id="path4536"
     inkscape:connector-curvature="0" />
  <path
     style="fill:none;stroke:#B9B9B9;stroke-width:1px;stroke-linecap:butt;stroke-linejoin:miter;stroke-opacity:1"
     d="m 191.98802,90.493843 h 2 v 4.999996 h -6 v 2.999999 h -2 v -4.999999 h 6 z"
     id="path4538"
     inkscape:connector-curvature="0" />
  <path
     style="fill:none;stroke:#B9B9B9;stroke-width:1px;stroke-linecap:butt;stroke-linejoin:miter;stroke-opacity:1"
     d="m 201.98802,91.493843 h 4 v 3.999996 h -4 z"
     id="path4540"
     inkscape:connector-curvature="0" />
  <path
     style="fill:none;stroke:#B9B9B9;stroke-width:1px;stroke-linecap:butt;stroke-linejoin:miter;stroke-opacity:1"
     d="m 201.98802,116.49383 v -7 h -14 v -3 h -2 v 3 h -1 v 2 h 15 v 5 h 2.5"
     id="path4560"
     inkscape:connector-curvature="0"
     sodipodi:nodetypes="ccccccccccc" />
  <path
     style="fill:none;stroke:#B9B9B9;stroke-width:1px;stroke-linecap:butt;stroke-linejoin:miter;stroke-opacity:1"
     d="M 139.98802,8.4938424 V 28.493843"
     id="path4564"
     inkscape:connector-curvature="0" />
  <path
     style="fill:none;stroke:#B9B9B9;stroke-width:1px;stroke-linecap:butt;stroke-linejoin:miter;stroke-opacity:1"
     d="M 192.98802,8.4938424 V 57.493843"
     id="path4566"
     inkscape:connector-curvature="0" />
  <path
     style="fill:none;stroke:#B9B9B9;stroke-width:1px;stroke-linecap:butt;stroke-linejoin:miter;stroke-opacity:1"
     d="m 139.98802,50.493843 v 7"
     id="path4568"
     inkscape:connector-curvature="0" />
  <path
     style="fill:none;stroke:#B9B9B9;stroke-width:1px;stroke-linecap:butt;stroke-linejoin:miter;stroke-opacity:1"
     d="m 148.98802,59.493843 h -8"
     id="path4570"
     inkscape:connector-curvature="0" />
  <path
     style="fill:none;stroke:#B9B9B9;stroke-width:1px;stroke-linecap:butt;stroke-linejoin:miter;stroke-opacity:1"
     d="m 155.98802,59.493843 h 36"
     id="path4572"
     inkscape:connector-curvature="0" />
  <path
     style="fill:none;stroke:#B9B9B9;stroke-width:1px;stroke-linecap:butt;stroke-linejoin:miter;stroke-opacity:1"
     d="m 192.98802,63.493843 v 27"
     id="path4574"
     inkscape:connector-curvature="0" />
  <path
     style="fill:none;stroke:#B9B9B9;stroke-width:1px;stroke-linecap:butt;stroke-linejoin:miter;stroke-opacity:1"
     d="m 193.98802,91.493843 h 8"
     id="path4576"
     inkscape:connector-curvature="0"
     sodipodi:nodetypes="cc" />
  <path
     style="fill:none;stroke:#B9B9B9;stroke-width:1px;stroke-linecap:butt;stroke-linejoin:miter;stroke-opacity:1"
     d="M 205.98802,95.493839 V 109.49383"
     id="path4578"
     inkscape:connector-curvature="0"
     sodipodi:nodetypes="cc" />
  <path
     style="fill:none;stroke:#B9B9B9;stroke-width:1px;stroke-linecap:butt;stroke-linejoin:miter;stroke-opacity:1"
     d="m 201.98802,109.49383 h 4 v 4 h -4 v -4"
     id="path4580"
     inkscape:connector-curvature="0" />
  <path
     style="fill:none;stroke:#B9B9B9;stroke-width:1px;stroke-linecap:butt;stroke-linejoin:miter;stroke-opacity:1"
     d="m 181.98802,135.49383 h 18 v -4 h 2 v 6 h -18 v 2 h -2 v -4.5"
     id="path4582"
     inkscape:connector-curvature="0"
     sodipodi:nodetypes="ccccccccc" />
  <path
     style="fill:none;stroke:#B9B9B9;stroke-width:1px;stroke-linecap:butt;stroke-linejoin:miter;stroke-opacity:1"
     d="m 200.98802,116.49383 v 15"
     id="path4584"
     inkscape:connector-curvature="0" />
  <path
     style="fill:none;stroke:#B9B9B9;stroke-width:1px;stroke-linecap:butt;stroke-linejoin:miter;stroke-opacity:1"
     d="m 173.98802,110.49383 v 21 h 9 v 4"
     id="path4586"
     inkscape:connector-curvature="0" />
  <path
     style="fill:none;stroke:#B9B9B9;stroke-width:1px;stroke-linecap:butt;stroke-linejoin:miter;stroke-opacity:1"
     d="m 173.98802,160.49383 h 8 v -6 h 2 v 8 h -10 z"
     id="path4588"
     inkscape:connector-curvature="0" />
  <path
     style="fill:none;stroke:#B9B9B9;stroke-width:1px;stroke-linecap:butt;stroke-linejoin:miter;stroke-opacity:1"
     d="m 182.98802,139.49383 v 15"
     id="path4590"
     inkscape:connector-curvature="0" />
  <path
     style="fill:none;stroke:#B9B9B9;stroke-width:1px;stroke-linecap:butt;stroke-linejoin:miter;stroke-opacity:1"
     d="m 127.98802,160.49383 h 24 v 2 h -24 v -0.64929 -1.85071"
     id="path4592"
     inkscape:connector-curvature="0"
     sodipodi:nodetypes="cccccc" />
  <path
     style="fill:none;stroke:#B9B9B9;stroke-width:1px;stroke-linecap:butt;stroke-linejoin:miter;stroke-opacity:1"
     d="m 128.98802,137.49383 v 1 h 15 v 22"
     id="path4596"
     inkscape:connector-curvature="0" />
  <path
     style="fill:none;stroke:#B9B9B9;stroke-width:1px;stroke-linecap:butt;stroke-linejoin:miter;stroke-opacity:1"
     d="m 134.98802,153.49383 h 9"
     id="path4602"
     inkscape:connector-curvature="0" />
  <path
     style="fill:none;stroke:#B9B9B9;stroke-width:1px;stroke-linecap:butt;stroke-linejoin:miter;stroke-opacity:1"
     d="m 151.98802,161.49383 h 22"
     id="path4604"
     inkscape:connector-curvature="0" />
  <path
     style="fill:none;stroke:#B9B9B9;stroke-width:1px;stroke-linecap:butt;stroke-linejoin:miter;stroke-opacity:1"
     d="m 181.98802,110.49383 h 3"
     id="path4606"
     inkscape:connector-curvature="0" />
  <path
     style="fill:none;stroke:#B9B9B9;stroke-width:1px;stroke-linecap:butt;stroke-linejoin:miter;stroke-opacity:1"
     d="m 158.98802,110.49383 h 16"
     id="path4610"
     inkscape:connector-curvature="0" />
  <path
     style="fill:none;stroke:#B9B9B9;stroke-width:1px;stroke-linecap:butt;stroke-linejoin:miter;stroke-opacity:1"
     d="m 160.98802,115.49383 h -1 v -5"
     id="path4612"
     inkscape:connector-curvature="0" />
  <path
     style="fill:none;stroke:#B9B9B9;stroke-width:1px;stroke-linecap:butt;stroke-linejoin:miter;stroke-opacity:1"
     d="m 172.98802,115.49383 h 1"
     id="path4614"
     inkscape:connector-curvature="0" />
  <path
     style="fill:none;stroke:#B9B9B9;stroke-width:1px;stroke-linecap:butt;stroke-linejoin:miter;stroke-opacity:1"
     d="m 186.98802,98.493838 v 7.999992"
     id="path4616"
     inkscape:connector-curvature="0" />
  <path
     style="fill:none;stroke:#B9B9B9;stroke-width:1px;stroke-linecap:butt;stroke-linejoin:miter;stroke-opacity:1"
     d="m 140.98802,65.493843 v 28.999996 h 8"
     id="path4618"
     inkscape:connector-curvature="0" />
  <path
     style="fill:none;stroke:#B9B9B9;stroke-width:1px;stroke-linecap:butt;stroke-linejoin:miter;stroke-opacity:1"
     d="m 156.98802,94.493839 h 29"
     id="path4620"
     inkscape:connector-curvature="0" />
  <path
     style="fill:none;stroke:#B9B9B9;stroke-width:1px;stroke-linecap:butt;stroke-linejoin:miter;stroke-opacity:1"
     d="m 118.98802,63.493843 h 13 v 2 h -13 L 119,63"
     id="path4622"
     inkscape:connector-curvature="0"
     sodipodi:nodetypes="ccccc" />
  <path
     style="fill:none;stroke:#B9B9B9;stroke-width:1px;stroke-linecap:butt;stroke-linejoin:miter;stroke-opacity:1"
     d="m 107.98802,63.493843 h 6 v 2 h -6 L 108,63"
     id="path4624"
     inkscape:connector-curvature="0"
     sodipodi:nodetypes="ccccc" />
  <path
     style="fill:none;stroke:#B9B9B9;stroke-width:1px;stroke-linecap:butt;stroke-linejoin:miter;stroke-opacity:1"
     d="m 116.98802,94.493839 h -6 V 65.493843"
     id="path4626"
     inkscape:connector-curvature="0" />
  <path
     style="fill:none;stroke:#B9B9B9;stroke-width:1px;stroke-linecap:butt;stroke-linejoin:miter;stroke-opacity:1"
     d="m 113.98802,64.493843 h 5"
     id="path4628"
     inkscape:connector-curvature="0" />
  <path
     style="fill:none;stroke:#B9B9B9;stroke-width:1px;stroke-linecap:butt;stroke-linejoin:miter;stroke-opacity:1"
     d="m 87.988022,63.493843 h -4 v 4 h 2 v -2 h 2 v -2"
     id="path4630"
     inkscape:connector-curvature="0" />
  <path
     style="fill:none;stroke:#B9B9B9;stroke-width:1px;stroke-linecap:butt;stroke-linejoin:miter;stroke-opacity:1"
     d="M 87.988022,64.493843 H 107.98802"
     id="path4632"
     inkscape:connector-curvature="0" />
  <path
     style="fill:none;stroke:#B9B9B9;stroke-width:1px;stroke-linecap:butt;stroke-linejoin:miter;stroke-opacity:1"
     d="m 80.988022,87.493843 h 3 v -2 h 2 v 4 h -5 z"
     id="path4634"
     inkscape:connector-curvature="0" />
  <path
     style="fill:none;stroke:#B9B9B9;stroke-width:1px;stroke-linecap:butt;stroke-linejoin:miter;stroke-opacity:1"
     d="m 84.988022,67.493843 v 18"
     id="path4636"
     inkscape:connector-curvature="0" />
  <path
     style="fill:none;stroke:#B9B9B9;stroke-width:1px;stroke-linecap:butt;stroke-linejoin:miter;stroke-opacity:1"
     d="m 83.988022,45.493843 h 4 v 4 h -4 z"
     id="path4638"
     inkscape:connector-curvature="0" />
  <path
     style="fill:none;stroke:#B9B9B9;stroke-width:1px;stroke-linecap:butt;stroke-linejoin:miter;stroke-opacity:1"
     d="m 87.988022,49.493843 v 14"
     id="path4640"
     inkscape:connector-curvature="0" />
  <path
     style="fill:none;stroke:#B9B9B9;stroke-width:1px;stroke-linecap:butt;stroke-linejoin:miter;stroke-opacity:1"
     d="m 43.988022,45.493843 h 4 v 4 h -4 L 44,45"
     id="path4644"
     inkscape:connector-curvature="0"
     sodipodi:nodetypes="ccccc" />
  <path
     style="fill:none;stroke:#B9B9B9;stroke-width:1px;stroke-linecap:butt;stroke-linejoin:miter;stroke-opacity:1"
     d="m 47.988022,45.493843 h 36"
     id="path4646"
     inkscape:connector-curvature="0" />
  <path
     style="fill:none;stroke:#B9B9B9;stroke-width:1px;stroke-linecap:butt;stroke-linejoin:miter;stroke-opacity:1"
     d="m 43.988022,63.493843 h 4 v 4 h -2 v -2 h -2 v -2"
     id="path4648"
     inkscape:connector-curvature="0" />
  <path
     style="fill:none;stroke:#B9B9B9;stroke-width:1px;stroke-linecap:butt;stroke-linejoin:miter;stroke-opacity:1"
     d="m 43.988022,49.493843 v 14"
     id="path4650"
     inkscape:connector-curvature="0" />
  <path
     style="fill:none;stroke:#B9B9B9;stroke-width:1px;stroke-linecap:butt;stroke-linejoin:miter;stroke-opacity:1"
     d="m 45.988022,85.493843 h 2 v 2 h 3 v 2 h -5 v -4.5"
     id="path4652"
     inkscape:connector-curvature="0"
     sodipodi:nodetypes="ccccccc" />
  <path
     style="fill:none;stroke:#B9B9B9;stroke-width:1px;stroke-linecap:butt;stroke-linejoin:miter;stroke-opacity:1"
     d="m 46.988022,67.493843 v 18"
     id="path4654"
     inkscape:connector-curvature="0" />
  <path
     style="fill:none;stroke:#B9B9B9;stroke-width:1px;stroke-linecap:butt;stroke-linejoin:miter;stroke-opacity:1"
     d="m 47.988022,89.493843 v 2"
     id="path4656"
     inkscape:connector-curvature="0" />
  <path
     style="fill:none;stroke:#B9B9B9;stroke-width:1px;stroke-linecap:butt;stroke-linejoin:miter;stroke-opacity:1"
     d="m 50.988022,88.493843 h 30"
     id="path4658"
     inkscape:connector-curvature="0" />
  <path
     style="fill:none;stroke:#B9B9B9;stroke-width:1px;stroke-linecap:butt;stroke-linejoin:miter;stroke-opacity:1"
     d="m 32.988022,63.493843 h 0.5 -22.499999 v 45.999987 h 2 V 65.493843 h 19.999999 v -2"
     id="path4660"
     inkscape:connector-curvature="0"
     sodipodi:nodetypes="cccccccc" />
  <path
     style="fill:none;stroke:#B9B9B9;stroke-width:1px;stroke-linecap:butt;stroke-linejoin:miter;stroke-opacity:1"
     d="m 32.988022,64.493843 h 11"
     id="path4662"
     inkscape:connector-curvature="0" />
  <path
     style="fill:none;stroke:#B9B9B9;stroke-width:1px;stroke-linecap:butt;stroke-linejoin:miter;stroke-opacity:1"
     d="M 12.988023,103.49383 H 47.988022 V 98.493838"
     id="path4664"
     inkscape:connector-curvature="0" />
  <path
     style="fill:none;stroke:#B9B9B9;stroke-width:1px;stroke-linecap:butt;stroke-linejoin:miter;stroke-opacity:1"
     d="m 37.988022,103.49383 v 2"
     id="path4666"
     inkscape:connector-curvature="0" />
  <path
     style="fill:none;stroke:#B9B9B9;stroke-width:1px;stroke-linecap:butt;stroke-linejoin:miter;stroke-opacity:1"
     d="m 10.988023,123.49383 h 2 v 18 h -2 z"
     id="path4668"
     inkscape:connector-curvature="0" />
  <path
     style="fill:none;stroke:#B9B9B9;stroke-width:1px;stroke-linecap:butt;stroke-linejoin:miter;stroke-opacity:1"
     d="m 11.988023,109.49383 v 14"
     id="path4670"
     inkscape:connector-curvature="0" />
  <path
     style="fill:none;stroke:#B9B9B9;stroke-width:1px;stroke-linecap:butt;stroke-linejoin:miter;stroke-opacity:1"
     d="m 10.988023,153.49383 h 2 v 7 h 31.999999 v 2 H 10.988023 Z"
     id="path4672"
     inkscape:connector-curvature="0" />
  <path
     style="fill:none;stroke:#B9B9B9;stroke-width:1px;stroke-linecap:butt;stroke-linejoin:miter;stroke-opacity:1"
     d="m 11.988023,141.49383 v 12"
     id="path4674"
     inkscape:connector-curvature="0" />
  <path
     style="fill:none;stroke:#B9B9B9;stroke-width:1px;stroke-linecap:butt;stroke-linejoin:miter;stroke-opacity:1"
     d="M 12.988023,130.49383 H 39.988022"
     id="path4676"
     inkscape:connector-curvature="0" />
  <path
     style="fill:none;stroke:#B9B9B9;stroke-width:1px;stroke-linecap:butt;stroke-linejoin:miter;stroke-opacity:1"
     d="m 37.988022,131.49383 v 0"
     id="path4678"
     inkscape:connector-curvature="0" />
  <path
     style="fill:none;stroke:#B9B9B9;stroke-width:1px;stroke-linecap:butt;stroke-linejoin:miter;stroke-opacity:1"
     d="m 25.988022,134.49383 h 2 v -4"
     id="path4680"
     inkscape:connector-curvature="0" />
  <path
     style="fill:none;stroke:#B9B9B9;stroke-width:1px;stroke-linecap:butt;stroke-linejoin:miter;stroke-opacity:1"
     d="m 13.988023,134.49383 h -1"
     id="path4682"
     inkscape:connector-curvature="0" />
  <path
     style="fill:none;stroke:#B9B9B9;stroke-width:1px;stroke-linecap:butt;stroke-linejoin:miter;stroke-opacity:1"
     d="m 37.988022,137.49383 v 23"
     id="path4684"
     inkscape:connector-curvature="0" />
  <path
     style="fill:none;stroke:#B9B9B9;stroke-width:1px;stroke-linecap:butt;stroke-linejoin:miter;stroke-opacity:1"
     d="M 37.988022,131.49383 Z"
     id="path4686"
     inkscape:connector-curvature="0" />
  <path
     style="fill:none;stroke:#B9B9B9;stroke-width:1px;stroke-linecap:butt;stroke-linejoin:miter;stroke-opacity:1"
     d="m 37.988022,138.49383 h 6"
     id="path4688"
     inkscape:connector-curvature="0" />
  <path
     style="fill:none;stroke:#B9B9B9;stroke-width:1px;stroke-linecap:butt;stroke-linejoin:miter;stroke-opacity:1"
     d="m 37.988022,130.49383 v 1"
     id="path4690"
     inkscape:connector-curvature="0" />
  <path
     style="fill:none;stroke:#B9B9B9;stroke-width:1px;stroke-linecap:butt;stroke-linejoin:miter;stroke-opacity:1"
     d="m 42.988022,120.49383 v -17"
     id="path4692"
     inkscape:connector-curvature="0" />
  <path
     style="fill:none;stroke:#B9B9B9;stroke-width:1px;stroke-linecap:butt;stroke-linejoin:miter;stroke-opacity:1"
     d="m 37.988022,118.49383 v 2 h 10 v 10 0"
     id="path4694"
     inkscape:connector-curvature="0" />
  <path
     style="fill:none;stroke:#B9B9B9;stroke-width:1px;stroke-linecap:butt;stroke-linejoin:miter;stroke-opacity:1"
     d="m 46.988022,130.49383 h 2"
     id="path4696"
     inkscape:connector-curvature="0" />
  <path
     style="fill:none;stroke:#B9B9B9;stroke-width:1px;stroke-linecap:butt;stroke-linejoin:miter;stroke-opacity:1"
     d="m 47.988022,124.49383 h 1.4051 7.5949 v 6 h 8 v -6 h 9 v 6 h -1"
     id="path4698"
     inkscape:connector-curvature="0"
     sodipodi:nodetypes="ccccccccc" />
  <path
     style="fill:none;stroke:#B9B9B9;stroke-width:1px;stroke-linecap:butt;stroke-linejoin:miter;stroke-opacity:1"
     d="m 55.988022,130.49383 h 1"
     id="path4700"
     inkscape:connector-curvature="0" />
  <path
     style="fill:none;stroke:#B9B9B9;stroke-width:1px;stroke-linecap:butt;stroke-linejoin:miter;stroke-opacity:1"
     d="m 65.988022,130.49383 h -1"
     id="path4702"
     inkscape:connector-curvature="0" />
  <path
     style="fill:none;stroke:#B9B9B9;stroke-width:1px;stroke-linecap:butt;stroke-linejoin:miter;stroke-opacity:1"
     d="m 52.488022,160.49383 h 0.767327 4.732673 v 2 h -5 v -2"
     id="path4712"
     inkscape:connector-curvature="0"
     sodipodi:nodetypes="cccccc" />
  <path
     style="fill:none;stroke:#B9B9B9;stroke-width:1px;stroke-linecap:butt;stroke-linejoin:miter;stroke-opacity:1"
     d="m 63.988022,160.49383 h 2.50684 7.49316 v 2 h -10 v -2.5"
     id="path4714"
     inkscape:connector-curvature="0"
     sodipodi:nodetypes="cccccc" />
  <path
     style="fill:none;stroke:#B9B9B9;stroke-width:1px;stroke-linecap:butt;stroke-linejoin:miter;stroke-opacity:1"
     d="m 85.988022,160.49383 h 0.442005 5.557995 v 2 h -6 v -2.5 0.5"
     id="path4718"
     inkscape:connector-curvature="0"
     sodipodi:nodetypes="ccccccc" />
  <path
     style="fill:none;stroke:#B9B9B9;stroke-width:1px;stroke-linecap:butt;stroke-linejoin:miter;stroke-opacity:1"
     d="m 109.98802,160.49383 h 14 v 2 h -14 v -2.5 0.5"
     id="path4720"
     inkscape:connector-curvature="0"
     sodipodi:nodetypes="cccccc" />
  <path
     style="fill:none;stroke:#B9B9B9;stroke-width:1px;stroke-linecap:butt;stroke-linejoin:miter;stroke-opacity:1"
     d="m 91.988022,161.49383 h 17.822438 0.17756 v 0"
     id="path4722"
     inkscape:connector-curvature="0"
     sodipodi:nodetypes="cccc" />
  <path
     style="fill:none;stroke:#B9B9B9;stroke-width:1px;stroke-linecap:butt;stroke-linejoin:miter;stroke-opacity:1"
     d="m 123.98802,161.49383 h 4"
     id="path4724"
     inkscape:connector-curvature="0" />
  <path
     style="fill:none;stroke:#B9B9B9;stroke-width:1px;stroke-linecap:butt;stroke-linejoin:miter;stroke-opacity:1"
     d="m 73.988022,161.49383 h 12"
     id="path4726"
     inkscape:connector-curvature="0"
     sodipodi:nodetypes="cc" />
  <path
     style="fill:none;stroke:#B9B9B9;stroke-width:1px;stroke-linecap:butt;stroke-linejoin:miter;stroke-opacity:1"
     d="m 57.988022,161.49383 h 6"
     id="path4728"
     inkscape:connector-curvature="0" />
  <path
     style="fill:none;stroke:#B9B9B9;stroke-width:1px;stroke-linecap:butt;stroke-linejoin:miter;stroke-opacity:1"
     d="m 44.988022,161.49383 h 8"
     id="path4730"
     inkscape:connector-curvature="0"
     sodipodi:nodetypes="cc" />
  <path
     style="fill:none;stroke:#B9B9B9;stroke-width:1px;stroke-linecap:butt;stroke-linejoin:miter;stroke-opacity:1"
     d="m 64.988022,145.49383 v 15"
     id="path4732"
     inkscape:connector-curvature="0" />
  <path
     style="fill:none;stroke:#B9B9B9;stroke-width:1px;stroke-linecap:butt;stroke-linejoin:miter;stroke-opacity:1"
     d="m 63.988022,146.49383 v 0"
     id="path4734"
     inkscape:connector-curvature="0" />
  <path
     style="fill:none;stroke:#B9B9B9;stroke-width:1px;stroke-linecap:butt;stroke-linejoin:miter;stroke-opacity:1"
     d="m 63.988022,146.49383 h 1"
     id="path4736"
     inkscape:connector-curvature="0" />
  <path
     style="fill:none;stroke:#B9B9B9;stroke-width:1px;stroke-linecap:butt;stroke-linejoin:miter;stroke-opacity:1"
     d="m 56.988022,145.49383 v 15"
     id="path4738"
     inkscape:connector-curvature="0" />
  <path
     style="fill:none;stroke:#B9B9B9;stroke-width:1px;stroke-linecap:butt;stroke-linejoin:miter;stroke-opacity:1"
     d="m 50.988022,138.49383 h 6 v 1"
     id="path4740"
     inkscape:connector-curvature="0" />
  <path
     style="fill:none;stroke:#B9B9B9;stroke-width:1px;stroke-linecap:butt;stroke-linejoin:miter;stroke-opacity:1"
     d="m 51.988022,138.49383 v 8 h 6"
     id="path4744"
     inkscape:connector-curvature="0" />
  <path
     style="fill:none;stroke:#B9B9B9;stroke-width:1px;stroke-linecap:butt;stroke-linejoin:miter;stroke-opacity:1"
     d="m 64.988022,139.49383 v -1 h 23 v 22"
     id="path4746"
     inkscape:connector-curvature="0" />
  <path
     style="fill:none;stroke:#B9B9B9;stroke-width:1px;stroke-linecap:butt;stroke-linejoin:miter;stroke-opacity:1"
     d="M 81.988022,130.49383 H 133.98802"
     id="path4748"
     inkscape:connector-curvature="0" />
  <path
     style="fill:none;stroke:#B9B9B9;stroke-width:1px;stroke-linecap:butt;stroke-linejoin:miter;stroke-opacity:1"
     d="m 114.98802,123.49383 v 7"
     id="path4750"
     inkscape:connector-curvature="0" />
  <path
     style="fill:none;stroke:#B9B9B9;stroke-width:1px;stroke-linecap:butt;stroke-linejoin:miter;stroke-opacity:1"
     d="m 113.98802,130.49383 v 30"
     id="path4752"
     inkscape:connector-curvature="0" />
  <path
     style="fill:none;stroke:#B9B9B9;stroke-width:1px;stroke-linecap:butt;stroke-linejoin:miter;stroke-opacity:1"
     d="m 128.98802,130.49383 v 2"
     id="path4754"
     inkscape:connector-curvature="0" />
  <path
     style="fill:none;stroke:#B9B9B9;stroke-width:1px;stroke-linecap:butt;stroke-linejoin:miter;stroke-opacity:1"
     d="m 113.98802,107.49383 h 8 v 10 h -5.60465 -2.39535"
     id="path4756"
     inkscape:connector-curvature="0"
     sodipodi:nodetypes="ccccc" />
  <path
     style="fill:none;stroke:#B9B9B9;stroke-width:1px;stroke-linecap:butt;stroke-linejoin:miter;stroke-opacity:1"
     d="m 121.98802,110.49383 h 25 v 20 h -5"
     id="path4758"
     inkscape:connector-curvature="0" />
  <path
     style="fill:none;stroke:#B9B9B9;stroke-width:1px;stroke-linecap:butt;stroke-linejoin:miter;stroke-opacity:1"
     d="m 130.98802,110.49383 v 20"
     id="path4760"
     inkscape:connector-curvature="0"
     sodipodi:nodetypes="cc" />
  <path
     style="fill:none;stroke:#B9B9B9;stroke-width:1px;stroke-linecap:butt;stroke-linejoin:miter;stroke-opacity:1"
     d="m 131.98802,64.493843 h 5"
     id="path4762"
     inkscape:connector-curvature="0" />
  <text
     xml:space="preserve"
     x="11.988022"
     y="13.493843"
     id="text4631"><tspan
       sodipodi:role="line"
       id="tspan4629"
       x="11.988022"
       y="13.493843"
       style="font-size:7px">Alarm:</tspan></text>
  <text
     xml:space="preserve"
     x="10.988022"
     y="23.493843"
     id="text4631-4"><tspan
       sodipodi:role="line"
       id="tspan4629-0"
       x="10.988022"
       y="23.493843"
       style="font-size:7px">NVR:</tspan></text>
  <text
     xml:space="preserve"
     x="10.988022"
     y="33.493843"
     id="text4631-3"><tspan
       sodipodi:role="line"
       id="tspan4629-6"
       x="10.988022"
       y="33.493843"
       style="font-size:7px">Melbourne:</tspan></text>
  <text
     xml:space="preserve"
     x="58.988018"
     y="13.493843"
     id="alarm_control_panel.alarm"
     inkscape:label="alarm_control_panel.alarm "><tspan
       sodipodi:role="line"
       id="tspan4629-03"
       x="58.988018"
       y="13.493843"
       style="font-size:7px">-----------</tspan></text>
  <text
     xml:space="preserve"
     x="58.988018"
     y="23.493843"
     id="binary_sensor.blue_iris_nvr"
     inkscape:label="binary_sensor.blue_iris_nvr "><tspan
       sodipodi:role="line"
       id="tspan4629-03-2"
       x="58.988018"
       y="23.493843"
       style="font-size:7px">-----------</tspan></text>
  <text
     xml:space="preserve"
     x="58.988018"
     y="33.493843"
     id="sensor.melbourne_now"
     inkscape:label="sensor.melbourne_now "><tspan
       sodipodi:role="line"
       id="tspan4629-03-2-3"
       x="58.988018"
       y="33.493843"
       style="font-size:7px">-----------</tspan></text>
  <g
     id="camera.side_of_house"
     transform="matrix(0.87047864,0,0,1.1281938,-760.95359,-640.10291)"
     inkscape:label="camera.side_of_house">
    <path
       id="path4918"
       d="m 895.65469,714.11415 h -0.32455 c -0.0861,0 -0.1682,0.009 -0.249,0.0211 v -0.67968 c 0,-0.39354 -0.39028,-0.71221 -0.87253,-0.71221 h -6.26201 c -0.48161,0
-0.87317,0.31866 -0.87317,0.71221 v 3.03968 c 0,0.39388 0.39156,0.71352 0.87317,0.71352 h 6.26201 c 0.48225,0 0.87253,-0.31964 0.87253,-0.71352 v -0.98093 c 0.0808,0.0128
0.16292,0.0211 0.249,0.0211 h 0.35543 l 1.70036,1.07618 v -3.79464 z"
       inkscape:connector-curvature="0"
       style="fill:#646464;fill-opacity:1;stroke-width:0.009375" />
  </g>
  <g
     id="camera.fuse_box"
     transform="matrix(0.87047864,0,0,1.1281938,-632.82285,-640.29372)"
     inkscape:label="camera.fuse_box">
    <path
       id="path4918-2"
       d="m 895.65469,714.11415 h -0.32455 c -0.0861,0 -0.1682,0.009 -0.249,0.0211 v -0.67968 c 0,-0.39354 -0.39028,-0.71221 -0.87253,-0.71221 h -6.26201 c -0.48161,0
-0.87317,0.31866 -0.87317,0.71221 v 3.03968 c 0,0.39388 0.39156,0.71352 0.87317,0.71352 h 6.26201 c 0.48225,0 0.87253,-0.31964 0.87253,-0.71352 v -0.98093 c 0.0808,0.0128
0.16292,0.0211 0.249,0.0211 h 0.35543 l 1.70036,1.07618 v -3.79464 z"
       inkscape:connector-curvature="0"
       style="fill:#646464;fill-opacity:1;stroke-width:0.009375" />
  </g>
  <g
     id="camera.hallway"
     transform="matrix(-0.87047864,0,0,-1.1281938,956.67675,912.64963)"
     inkscape:label="camera.hallway">
    <path
       id="path4918-2-7"
       d="m 895.65469,714.11415 h -0.32455 c -0.0861,0 -0.1682,0.009 -0.249,0.0211 v -0.67968 c 0,-0.39354 -0.39028,-0.71221 -0.87253,-0.71221 h -6.26201 c -0.48161,0
-0.87317,0.31866 -0.87317,0.71221 v 3.03968 c 0,0.39388 0.39156,0.71352 0.87317,0.71352 h 6.26201 c 0.48225,0 0.87253,-0.31964 0.87253,-0.71352 v -0.98093 c 0.0808,0.0128
0.16292,0.0211 0.249,0.0211 h 0.35543 l 1.70036,1.07618 v -3.79464 z"
       inkscape:connector-curvature="0"
       style="fill:#646464;fill-opacity:1;stroke-width:0.009375" />
  </g>
  <g
     id="camera.back_garden"
     transform="matrix(0,0.87047864,-1.1281938,0,813.6725,-709.10718)"
     inkscape:label="camera.back_garden">
    <path
       id="path4918-2-7-1"
       d="m 895.65469,714.11415 h -0.32455 c -0.0861,0 -0.1682,0.009 -0.249,0.0211 v -0.67968 c 0,-0.39354 -0.39028,-0.71221 -0.87253,-0.71221 h -6.26201 c -0.48161,0
-0.87317,0.31866 -0.87317,0.71221 v 3.03968 c 0,0.39388 0.39156,0.71352 0.87317,0.71352 h 6.26201 c 0.48225,0 0.87253,-0.31964 0.87253,-0.71352 v -0.98093 c 0.0808,0.0128
0.16292,0.0211 0.249,0.0211 h 0.35543 l 1.70036,1.07618 v -3.79464 z"
       inkscape:connector-curvature="0"
       style="fill:#646464;fill-opacity:1;stroke-width:0.009375" />
  </g>
  <g
     id="camera.driveway"
     transform="matrix(0.61552135,0.61552135,-0.79775349,0.79775349,221.45286,-1110.0866)"
     inkscape:label="camera.driveway">
    <path
       id="path4918-2-7-1-2"
       d="m 895.65469,714.11415 h -0.32455 c -0.0861,0 -0.1682,0.009 -0.249,0.0211 v -0.67968 c 0,-0.39354 -0.39028,-0.71221 -0.87253,-0.71221 h -6.26201 c -0.48161,0
-0.87317,0.31866 -0.87317,0.71221 v 3.03968 c 0,0.39388 0.39156,0.71352 0.87317,0.71352 h 6.26201 c 0.48225,0 0.87253,-0.31964 0.87253,-0.71352 v -0.98093 c 0.0808,0.0128
0.16292,0.0211 0.249,0.0211 h 0.35543 l 1.70036,1.07618 v -3.79464 z"
       inkscape:connector-curvature="0"
       style="fill:#646464;fill-opacity:1;stroke-width:0.009375" />
  </g>
  <g
     id="camera.hair_salon"
     transform="matrix(0.61552135,0.61552135,-0.79775349,0.79775349,168.25851,-1054.2456)"
     inkscape:label="camera.hair_salon">
    <path
       id="path4918-2-7-1-2-4"
       d="m 895.65469,714.11415 h -0.32455 c -0.0861,0 -0.1682,0.009 -0.249,0.0211 v -0.67968 c 0,-0.39354 -0.39028,-0.71221 -0.87253,-0.71221 h -6.26201 c -0.48161,0
-0.87317,0.31866 -0.87317,0.71221 v 3.03968 c 0,0.39388 0.39156,0.71352 0.87317,0.71352 h 6.26201 c 0.48225,0 0.87253,-0.31964 0.87253,-0.71352 v -0.98093 c 0.0808,0.0128
0.16292,0.0211 0.249,0.0211 h 0.35543 l 1.70036,1.07618 v -3.79464 z"
       inkscape:connector-curvature="0"
       style="fill:#646464;fill-opacity:1;stroke-width:0.009375" />
  </g>
  <g
     id="camera.backyard"
     transform="matrix(-0.61552135,-0.61552135,0.79775349,-0.79775349,111.55553,1177.3777)"
     inkscape:label="camera.backyard">
    <path
       id="path4918-2-7-1-2-4-2"
       d="m 895.65469,714.11415 h -0.32455 c -0.0861,0 -0.1682,0.009 -0.249,0.0211 v -0.67968 c 0,-0.39354 -0.39028,-0.71221 -0.87253,-0.71221 h -6.26201 c -0.48161,0
-0.87317,0.31866 -0.87317,0.71221 v 3.03968 c 0,0.39388 0.39156,0.71352 0.87317,0.71352 h 6.26201 c 0.48225,0 0.87253,-0.31964 0.87253,-0.71352 v -0.98093 c 0.0808,0.0128
0.16292,0.0211 0.249,0.0211 h 0.35543 l 1.70036,1.07618 v -3.79464 z"
       inkscape:connector-curvature="0"
       style="fill:#646464;fill-opacity:1;stroke-width:0.009375" />
  </g>
  <g
     id="camera.front_door"
     transform="matrix(0.61552135,-0.61552135,0.79775349,0.79775349,-925.80567,82.507864)"
     inkscape:label="camera.front_door">
    <path
       id="path4918-2-7-1-2-4-2-9"
       d="m 895.65469,714.11415 h -0.32455 c -0.0861,0 -0.1682,0.009 -0.249,0.0211 v -0.67968 c 0,-0.39354 -0.39028,-0.71221 -0.87253,-0.71221 h -6.26201 c -0.48161,0
-0.87317,0.31866 -0.87317,0.71221 v 3.03968 c 0,0.39388 0.39156,0.71352 0.87317,0.71352 h 6.26201 c 0.48225,0 0.87253,-0.31964 0.87253,-0.71352 v -0.98093 c 0.0808,0.0128
0.16292,0.0211 0.249,0.0211 h 0.35543 l 1.70036,1.07618 v -3.79464 z"
       inkscape:connector-curvature="0"
       style="fill:#646464;fill-opacity:1;stroke-width:0.009375" />
  </g>
  <g
     id="camera.front_yard"
     transform="matrix(0.61552135,-0.61552135,0.79775349,0.79775349,-929.735,135.71283)"
     inkscape:label="camera.front_yard">
    <path
       id="path4918-2-7-1-2-4-2-0"
       d="m 895.65469,714.11415 h -0.32455 c -0.0861,0 -0.1682,0.009 -0.249,0.0211 v -0.67968 c 0,-0.39354 -0.39028,-0.71221 -0.87253,-0.71221 h -6.26201 c -0.48161,0
-0.87317,0.31866 -0.87317,0.71221 v 3.03968 c 0,0.39388 0.39156,0.71352 0.87317,0.71352 h 6.26201 c 0.48225,0 0.87253,-0.31964 0.87253,-0.71352 v -0.98093 c 0.0808,0.0128
0.16292,0.0211 0.249,0.0211 h 0.35543 l 1.70036,1.07618 v -3.79464 z"
       inkscape:connector-curvature="0"
       style="fill:#646464;fill-opacity:1;stroke-width:0.009375" />
  </g>
  <path
     id="switch.doorbell"
     d="m 199.56106,79.437393 a 1.0302317,1.0302317 0 0 1 -1.03024,1.030232 1.0302317,1.0302317 0 0 1 -1.03023,-1.030232 h 2.06047 m -1.03024,-9.272085 a 0.51511583,0.51511583 0 0 1
0.51512,0.515116 v 0.556325 c 1.46293,0.247256 2.57558,1.519592 2.57558,3.049486 v 3.090695 l 1.54535,1.545347 h -9.27209 l 1.54535,-1.545347 v -3.090695 c 0,-1.529894
1.11265,-2.80223 2.57558,-3.049486 v -0.556325 a 0.51511583,0.51511583 0 0 1 0.51511,-0.515116 z"
     inkscape:connector-curvature="0"
     style="fill:#646464;fill-opacity:1;stroke-width:0.51511586"
     inkscape:label="switch.doorbell " />
  <g
     style="display:block"
     id="media_player.alfresco"
     transform="matrix(0.02381784,0,0,0.02381784,62.294144,62.669579)"
     inkscape:label="media_player.alfresco">
    <g
       id="svgg">
      <path
         d=""
         id="path0"
         inkscape:connector-curvature="0"
         style="fill:#000000;fill-rule:evenodd;stroke:none" />
      <path
         d="M 90.338,78.338 88,80.677 v 75.517 75.518 l -2.862,3.344 -2.863,3.344 h -19.19 c -21.604,0 -21.142,-0.11 -25.028,5.964 -2.054,3.212 -3.679,4.725 -6.335,5.9 -2.665,1.179
-4.282,2.688 -6.362,5.94 -1.534,2.398 -4.082,5.159 -5.661,6.135 -5.309,3.281 -6.099,4.994 -6.099,13.219 0,8.058 0.259,8.544 6.997,13.166 1.428,0.979 3.543,3.394 4.698,5.367
1.312,2.237 3.696,4.605 6.34,6.297 2.68,1.714 5.028,4.059 6.386,6.375 3.613,6.166 3.076,6.037 25.218,6.037 22.161,0 20.474,0.456 24.75,-6.685 1.016,-1.697 3.73,-4.29 6.031,-5.762
2.624,-1.679 4.982,-4.039 6.326,-6.332 1.178,-2.011 3.653,-4.619 5.498,-5.795 1.846,-1.176 4.166,-2.851 5.156,-3.722 l 1.8,-1.583 v -69.316 -69.317 l 2.862,-3.344 2.863,-3.344 h
44.337 44.338 l 3.2,3.2 3.2,3.2 v 44 44 l -3.2,3.2 -3.2,3.2 h -19.253 c -21.642,0 -21.209,-0.102 -25.044,5.893 -1.982,3.098 -3.771,4.77 -6.61,6.177 -3.095,1.535 -4.268,2.715
-5.722,5.758 -1.359,2.846 -2.944,4.542 -6.177,6.61 -5.594,3.579 -5.994,4.445 -5.994,12.97 0,7.919 0.057,8.019 7.046,12.478 2.363,1.507 3.919,3.299 4.947,5.697 1.124,2.624 2.598,4.202
5.89,6.308 2.824,1.806 5.156,4.115 6.538,6.472 3.616,6.171 3.053,6.037 25.419,6.037 h 19.883 l 2.139,-2.292 c 1.176,-1.261 3.116,-3.769 4.311,-5.573 1.195,-1.805 3.575,-4.166
5.289,-5.248 1.713,-1.082 4.085,-3.622 5.271,-5.645 1.19,-2.031 3.658,-4.636 5.511,-5.816 1.846,-1.176 4.166,-2.851 5.156,-3.722 l 1.8,-1.583 V 181.799 80.677 L 235.262,78.338
232.923,76 H 162.8 92.677 l -2.339,2.338 m 225.333,12.123 c -2.048,2.434 -2.071,2.611 -2.071,15.892 0,15.007 0.209,15.668 6.099,19.308 1.579,0.976 4.076,3.658 5.548,5.959 1.659,2.592
4.04,4.982 6.262,6.285 5.633,3.3 6.891,5.651 6.891,12.871 0,7.477 0.494,8.467 5.972,11.972 6.316,4.04 6.028,2.244 6.028,37.652 0,35.408 0.288,33.612 -6.028,37.652 -5.478,3.505
-5.972,4.495 -5.972,11.972 0,7.22 -1.258,9.571 -6.891,12.871 -2.222,1.303 -4.603,3.693 -6.262,6.285 -1.472,2.301 -3.969,4.983 -5.548,5.959 -5.893,3.642 -6.099,4.296 -6.099,19.356 v
13.48 l 2.308,2.583 c 3.007,3.365 5.269,2.477 9.153,-3.595 1.768,-2.764 4.187,-5.194 6.725,-6.755 2.512,-1.546 4.753,-3.788 6.122,-6.124 1.379,-2.352 3.812,-4.777 6.726,-6.705
2.986,-1.975 5.056,-4.057 5.982,-6.019 0.931,-1.974 2.907,-3.954 5.777,-5.79 5.585,-3.573 6.007,-4.466 6.007,-12.717 V 256 l 3.2,-3.2 c 1.76,-1.76 3.894,-3.2 4.742,-3.2 4.871,0
4.858,0.129 4.858,-49.2 0,-50.76 0.398,-47.587 -6.302,-50.268 -5.045,-2.018 -6.498,-4.816 -6.498,-12.508 0,-7.908 -0.452,-8.84 -6.007,-12.394 -2.87,-1.836 -4.846,-3.816 -5.777,-5.79
-0.926,-1.962 -2.996,-4.044 -5.982,-6.019 -2.891,-1.912 -5.348,-4.355 -6.699,-6.659 -1.342,-2.291 -3.702,-4.643 -6.37,-6.35 -2.68,-1.714 -5.028,-4.059 -6.386,-6.375 -3.75,-6.399
-6.319,-7.365 -9.508,-3.576 m -50.133,50.277 c -2.223,2.224 -2.338,2.678 -2.338,9.253 0,8.307 0.42,9.205 5.96,12.749 2.772,1.773 5.091,4.085 6.488,6.47 1.196,2.041 3.536,4.57
5.2,5.62 1.663,1.05 3.953,3.127 5.088,4.615 l 2.064,2.706 v 18.249 18.249 l -2.064,2.706 c -1.135,1.488 -3.425,3.565 -5.088,4.615 -1.664,1.05 -4.004,3.579 -5.2,5.62 -1.397,2.385
-3.716,4.697 -6.488,6.47 -5.54,3.544 -5.96,4.442 -5.96,12.749 0,10.055 1.617,11.591 12.199,11.591 8.326,0 8.709,-0.201 12.528,-6.586 1.921,-3.211 5.564,-6.214 7.538,-6.214 2.93,0
4.535,-3.887 4.535,-10.984 0,-7.918 1.127,-10.134 6.866,-13.497 6.037,-3.538 5.934,-3.107 5.934,-24.719 0,-21.612 0.103,-21.181 -5.934,-24.719 -5.739,-3.363 -6.866,-5.579
-6.866,-13.497 0,-7.859 -1.116,-9.976 -6.364,-12.076 -2.148,-0.86 -3.906,-2.396 -5.371,-4.693 -4.465,-7.003 -4.488,-7.015 -12.866,-7.015 -7.247,0 -7.608,0.085 -9.861,2.338"
         id="path1"
         inkscape:connector-curvature="0"
         style="fill:#ffffff;fill-rule:evenodd;stroke:none" class="ha-leave-me-alone" />
      <path
         d="M 44,3.179 V 6.358 L 31.8,6.579 19.6,6.8 19.136,12.197 c -0.567,6.599 -0.34,6.372 -6.939,6.939 L 6.8,19.6 6.579,31.8 6.358,44 H 3.179 0 v 156 156 h 3.2 3.2 v 11.84 c
0,13.816 -0.028,13.76 6.924,13.76 h 5.003 l 0.432,2.6 c 0.237,1.43 0.523,4.04 0.636,5.8 0.118,1.848 0.627,3.242 1.205,3.3 0.55,0.055 6.04,0.145 12.2,0.2 l 11.2,0.1 v 3.2 3.2 h 156
156 v -3.18 -3.179 l 12.6,-0.221 12.6,-0.22 0.234,-5.766 0.235,-5.765 5.765,-0.235 5.766,-0.234 0.22,-12.6 0.221,-12.6 H 396.82 400 V 200 44 h -3.2 -3.2 l -0.1,-11.2 c -0.055,-6.16
-0.145,-11.65 -0.2,-12.2 -0.058,-0.578 -1.452,-1.087 -3.3,-1.205 -1.76,-0.113 -4.37,-0.399 -5.8,-0.636 l -2.6,-0.432 V 13.324 C 381.6,6.372 381.656,6.4 367.84,6.4 H 356 V 3.2 0 H 200
44 v 3.179 m 191.262,75.159 2.338,2.339 v 101.122 101.122 l -1.8,1.583 c -0.99,0.871 -3.31,2.546 -5.156,3.722 -1.853,1.18 -4.321,3.785 -5.511,5.816 -1.186,2.023 -3.558,4.563
-5.271,5.645 -1.714,1.082 -4.094,3.443 -5.289,5.248 -1.195,1.804 -3.135,4.312 -4.311,5.573 l -2.139,2.292 H 188.24 c -22.366,0 -21.803,0.134 -25.419,-6.037 -1.382,-2.357
-3.714,-4.666 -6.538,-6.472 -3.292,-2.106 -4.766,-3.684 -5.89,-6.308 -1.028,-2.398 -2.584,-4.19 -4.947,-5.697 -6.989,-4.459 -7.046,-4.559 -7.046,-12.478 0,-8.525 0.4,-9.391
5.994,-12.97 3.233,-2.068 4.818,-3.764 6.177,-6.61 1.454,-3.043 2.627,-4.223 5.722,-5.758 2.839,-1.407 4.628,-3.079 6.61,-6.177 3.835,-5.995 3.402,-5.893 25.044,-5.893 H 207.2 l
3.2,-3.2 3.2,-3.2 v -44 -44 l -3.2,-3.2 -3.2,-3.2 h -44.338 -44.337 l -2.863,3.344 -2.862,3.344 v 69.317 69.316 l -1.8,1.583 c -0.99,0.871 -3.31,2.546 -5.156,3.722 -1.845,1.176
-4.32,3.784 -5.498,5.795 -1.344,2.293 -3.702,4.653 -6.326,6.332 -2.301,1.472 -5.015,4.065 -6.031,5.762 -4.276,7.141 -2.589,6.685 -24.75,6.685 -22.142,0 -21.605,0.129 -25.218,-6.037
-1.358,-2.316 -3.706,-4.661 -6.386,-6.375 -2.644,-1.692 -5.028,-4.06 -6.34,-6.297 -1.155,-1.973 -3.27,-4.388 -4.698,-5.367 -6.738,-4.622 -6.997,-5.108 -6.997,-13.166 0,-8.225
0.79,-9.938 6.099,-13.219 1.579,-0.976 4.127,-3.737 5.661,-6.135 2.08,-3.252 3.697,-4.761 6.362,-5.94 2.656,-1.175 4.281,-2.688 6.335,-5.9 3.886,-6.074 3.424,-5.964 25.028,-5.964 h
19.19 L 85.138,235.056 88,231.712 V 156.194 80.677 L 90.338,78.338 92.677,76 h 70.123 70.123 l 2.339,2.338 m 86.076,10.849 c 0.932,0.652 2.66,2.835 3.841,4.85 1.358,2.316 3.706,4.661
6.386,6.375 2.668,1.707 5.028,4.059 6.37,6.35 1.351,2.304 3.808,4.747 6.699,6.659 2.986,1.975 5.056,4.057 5.982,6.019 0.931,1.974 2.907,3.954 5.777,5.79 5.555,3.554 6.007,4.486
6.007,12.394 0,7.692 1.453,10.49 6.498,12.508 6.7,2.681 6.302,-0.492 6.302,50.268 0,49.329 0.013,49.2 -4.858,49.2 -0.848,0 -2.982,1.44 -4.742,3.2 l -3.2,3.2 v 6.853 c 0,8.251
-0.422,9.144 -6.007,12.717 -2.87,1.836 -4.846,3.816 -5.777,5.79 -0.926,1.962 -2.996,4.044 -5.982,6.019 -2.914,1.928 -5.347,4.353 -6.726,6.705 -1.369,2.336 -3.61,4.578 -6.122,6.124
-2.538,1.561 -4.957,3.991 -6.725,6.755 -3.884,6.072 -6.146,6.96 -9.153,3.595 l -2.308,-2.583 v -13.48 c 0,-15.06 0.206,-15.714 6.099,-19.356 1.579,-0.976 4.076,-3.658 5.548,-5.959
1.659,-2.592 4.04,-4.982 6.262,-6.285 5.633,-3.3 6.891,-5.651 6.891,-12.871 0,-7.477 0.494,-8.467 5.972,-11.972 6.316,-4.04 6.028,-2.244 6.028,-37.652 0,-35.408 0.288,-33.612
-6.028,-37.652 -5.478,-3.505 -5.972,-4.495 -5.972,-11.972 0,-7.22 -1.258,-9.571 -6.891,-12.871 -2.222,-1.303 -4.603,-3.693 -6.262,-6.285 -1.472,-2.301 -3.969,-4.983 -5.548,-5.959
-5.89,-3.64 -6.099,-4.301 -6.099,-19.308 0,-16.348 2.137,-21.089 7.738,-17.166 M 284.504,140.2 c 0.871,0.99 2.563,3.337 3.761,5.215 1.465,2.297 3.223,3.833 5.371,4.693 5.248,2.1
6.364,4.217 6.364,12.076 0,7.918 1.127,10.134 6.866,13.497 6.037,3.538 5.934,3.107 5.934,24.719 0,21.612 0.103,21.181 -5.934,24.719 -5.739,3.363 -6.866,5.579 -6.866,13.497 0,7.097
-1.605,10.984 -4.535,10.984 -1.974,0 -5.617,3.003 -7.538,6.214 -3.819,6.385 -4.202,6.586 -12.528,6.586 -10.582,0 -12.199,-1.536 -12.199,-11.591 0,-8.307 0.42,-9.205 5.96,-12.749
2.772,-1.773 5.091,-4.085 6.488,-6.47 1.196,-2.041 3.536,-4.57 5.2,-5.62 1.663,-1.05 3.953,-3.127 5.088,-4.615 L 288,218.649 V 200.4 182.151 l -2.064,-2.706 c -1.135,-1.488
-3.425,-3.565 -5.088,-4.615 -1.664,-1.05 -4.004,-3.579 -5.2,-5.62 -1.397,-2.385 -3.716,-4.697 -6.488,-6.47 -5.54,-3.544 -5.96,-4.442 -5.96,-12.749 0,-10.055 1.617,-11.591
12.199,-11.591 6.798,0 7.674,0.173 9.105,1.8"
         id="path2"
         inkscape:connector-curvature="0"
         style="fill:#a1a1a1;fill-rule:evenodd;stroke:none" />
    </g>
  </g>
  <g
     style="display:block"
     id="media_player.salon"
     transform="matrix(0.02381784,0,0,0.02381784,163.89264,71.709553)"
     inkscape:label="media_player.salon">
    <g
       id="svgg-3">
      <path
         d=""
         id="path0-9"
         inkscape:connector-curvature="0"
         style="fill:#000000;fill-rule:evenodd;stroke:none" />
      <path
         d="M 90.338,78.338 88,80.677 v 75.517 75.518 l -2.862,3.344 -2.863,3.344 h -19.19 c -21.604,0 -21.142,-0.11 -25.028,5.964 -2.054,3.212 -3.679,4.725 -6.335,5.9 -2.665,1.179
-4.282,2.688 -6.362,5.94 -1.534,2.398 -4.082,5.159 -5.661,6.135 -5.309,3.281 -6.099,4.994 -6.099,13.219 0,8.058 0.259,8.544 6.997,13.166 1.428,0.979 3.543,3.394 4.698,5.367
1.312,2.237 3.696,4.605 6.34,6.297 2.68,1.714 5.028,4.059 6.386,6.375 3.613,6.166 3.076,6.037 25.218,6.037 22.161,0 20.474,0.456 24.75,-6.685 1.016,-1.697 3.73,-4.29 6.031,-5.762
2.624,-1.679 4.982,-4.039 6.326,-6.332 1.178,-2.011 3.653,-4.619 5.498,-5.795 1.846,-1.176 4.166,-2.851 5.156,-3.722 l 1.8,-1.583 v -69.316 -69.317 l 2.862,-3.344 2.863,-3.344 h
44.337 44.338 l 3.2,3.2 3.2,3.2 v 44 44 l -3.2,3.2 -3.2,3.2 h -19.253 c -21.642,0 -21.209,-0.102 -25.044,5.893 -1.982,3.098 -3.771,4.77 -6.61,6.177 -3.095,1.535 -4.268,2.715
-5.722,5.758 -1.359,2.846 -2.944,4.542 -6.177,6.61 -5.594,3.579 -5.994,4.445 -5.994,12.97 0,7.919 0.057,8.019 7.046,12.478 2.363,1.507 3.919,3.299 4.947,5.697 1.124,2.624 2.598,4.202
5.89,6.308 2.824,1.806 5.156,4.115 6.538,6.472 3.616,6.171 3.053,6.037 25.419,6.037 h 19.883 l 2.139,-2.292 c 1.176,-1.261 3.116,-3.769 4.311,-5.573 1.195,-1.805 3.575,-4.166
5.289,-5.248 1.713,-1.082 4.085,-3.622 5.271,-5.645 1.19,-2.031 3.658,-4.636 5.511,-5.816 1.846,-1.176 4.166,-2.851 5.156,-3.722 l 1.8,-1.583 V 181.799 80.677 L 235.262,78.338
232.923,76 H 162.8 92.677 l -2.339,2.338 m 225.333,12.123 c -2.048,2.434 -2.071,2.611 -2.071,15.892 0,15.007 0.209,15.668 6.099,19.308 1.579,0.976 4.076,3.658 5.548,5.959 1.659,2.592
4.04,4.982 6.262,6.285 5.633,3.3 6.891,5.651 6.891,12.871 0,7.477 0.494,8.467 5.972,11.972 6.316,4.04 6.028,2.244 6.028,37.652 0,35.408 0.288,33.612 -6.028,37.652 -5.478,3.505
-5.972,4.495 -5.972,11.972 0,7.22 -1.258,9.571 -6.891,12.871 -2.222,1.303 -4.603,3.693 -6.262,6.285 -1.472,2.301 -3.969,4.983 -5.548,5.959 -5.893,3.642 -6.099,4.296 -6.099,19.356 v
13.48 l 2.308,2.583 c 3.007,3.365 5.269,2.477 9.153,-3.595 1.768,-2.764 4.187,-5.194 6.725,-6.755 2.512,-1.546 4.753,-3.788 6.122,-6.124 1.379,-2.352 3.812,-4.777 6.726,-6.705
2.986,-1.975 5.056,-4.057 5.982,-6.019 0.931,-1.974 2.907,-3.954 5.777,-5.79 5.585,-3.573 6.007,-4.466 6.007,-12.717 V 256 l 3.2,-3.2 c 1.76,-1.76 3.894,-3.2 4.742,-3.2 4.871,0
4.858,0.129 4.858,-49.2 0,-50.76 0.398,-47.587 -6.302,-50.268 -5.045,-2.018 -6.498,-4.816 -6.498,-12.508 0,-7.908 -0.452,-8.84 -6.007,-12.394 -2.87,-1.836 -4.846,-3.816 -5.777,-5.79
-0.926,-1.962 -2.996,-4.044 -5.982,-6.019 -2.891,-1.912 -5.348,-4.355 -6.699,-6.659 -1.342,-2.291 -3.702,-4.643 -6.37,-6.35 -2.68,-1.714 -5.028,-4.059 -6.386,-6.375 -3.75,-6.399
-6.319,-7.365 -9.508,-3.576 m -50.133,50.277 c -2.223,2.224 -2.338,2.678 -2.338,9.253 0,8.307 0.42,9.205 5.96,12.749 2.772,1.773 5.091,4.085 6.488,6.47 1.196,2.041 3.536,4.57
5.2,5.62 1.663,1.05 3.953,3.127 5.088,4.615 l 2.064,2.706 v 18.249 18.249 l -2.064,2.706 c -1.135,1.488 -3.425,3.565 -5.088,4.615 -1.664,1.05 -4.004,3.579 -5.2,5.62 -1.397,2.385
-3.716,4.697 -6.488,6.47 -5.54,3.544 -5.96,4.442 -5.96,12.749 0,10.055 1.617,11.591 12.199,11.591 8.326,0 8.709,-0.201 12.528,-6.586 1.921,-3.211 5.564,-6.214 7.538,-6.214 2.93,0
4.535,-3.887 4.535,-10.984 0,-7.918 1.127,-10.134 6.866,-13.497 6.037,-3.538 5.934,-3.107 5.934,-24.719 0,-21.612 0.103,-21.181 -5.934,-24.719 -5.739,-3.363 -6.866,-5.579
-6.866,-13.497 0,-7.859 -1.116,-9.976 -6.364,-12.076 -2.148,-0.86 -3.906,-2.396 -5.371,-4.693 -4.465,-7.003 -4.488,-7.015 -12.866,-7.015 -7.247,0 -7.608,0.085 -9.861,2.338"
         id="path1-0"
         inkscape:connector-curvature="0"
         style="fill:#ffffff;fill-rule:evenodd;stroke:none" class="ha-leave-me-alone" />
      <path
         d="M 44,3.179 V 6.358 L 31.8,6.579 19.6,6.8 19.136,12.197 c -0.567,6.599 -0.34,6.372 -6.939,6.939 L 6.8,19.6 6.579,31.8 6.358,44 H 3.179 0 v 156 156 h 3.2 3.2 v 11.84 c
0,13.816 -0.028,13.76 6.924,13.76 h 5.003 l 0.432,2.6 c 0.237,1.43 0.523,4.04 0.636,5.8 0.118,1.848 0.627,3.242 1.205,3.3 0.55,0.055 6.04,0.145 12.2,0.2 l 11.2,0.1 v 3.2 3.2 h 156
156 v -3.18 -3.179 l 12.6,-0.221 12.6,-0.22 0.234,-5.766 0.235,-5.765 5.765,-0.235 5.766,-0.234 0.22,-12.6 0.221,-12.6 H 396.82 400 V 200 44 h -3.2 -3.2 l -0.1,-11.2 c -0.055,-6.16
-0.145,-11.65 -0.2,-12.2 -0.058,-0.578 -1.452,-1.087 -3.3,-1.205 -1.76,-0.113 -4.37,-0.399 -5.8,-0.636 l -2.6,-0.432 V 13.324 C 381.6,6.372 381.656,6.4 367.84,6.4 H 356 V 3.2 0 H 200
44 v 3.179 m 191.262,75.159 2.338,2.339 v 101.122 101.122 l -1.8,1.583 c -0.99,0.871 -3.31,2.546 -5.156,3.722 -1.853,1.18 -4.321,3.785 -5.511,5.816 -1.186,2.023 -3.558,4.563
-5.271,5.645 -1.714,1.082 -4.094,3.443 -5.289,5.248 -1.195,1.804 -3.135,4.312 -4.311,5.573 l -2.139,2.292 H 188.24 c -22.366,0 -21.803,0.134 -25.419,-6.037 -1.382,-2.357
-3.714,-4.666 -6.538,-6.472 -3.292,-2.106 -4.766,-3.684 -5.89,-6.308 -1.028,-2.398 -2.584,-4.19 -4.947,-5.697 -6.989,-4.459 -7.046,-4.559 -7.046,-12.478 0,-8.525 0.4,-9.391
5.994,-12.97 3.233,-2.068 4.818,-3.764 6.177,-6.61 1.454,-3.043 2.627,-4.223 5.722,-5.758 2.839,-1.407 4.628,-3.079 6.61,-6.177 3.835,-5.995 3.402,-5.893 25.044,-5.893 H 207.2 l
3.2,-3.2 3.2,-3.2 v -44 -44 l -3.2,-3.2 -3.2,-3.2 h -44.338 -44.337 l -2.863,3.344 -2.862,3.344 v 69.317 69.316 l -1.8,1.583 c -0.99,0.871 -3.31,2.546 -5.156,3.722 -1.845,1.176
-4.32,3.784 -5.498,5.795 -1.344,2.293 -3.702,4.653 -6.326,6.332 -2.301,1.472 -5.015,4.065 -6.031,5.762 -4.276,7.141 -2.589,6.685 -24.75,6.685 -22.142,0 -21.605,0.129 -25.218,-6.037
-1.358,-2.316 -3.706,-4.661 -6.386,-6.375 -2.644,-1.692 -5.028,-4.06 -6.34,-6.297 -1.155,-1.973 -3.27,-4.388 -4.698,-5.367 -6.738,-4.622 -6.997,-5.108 -6.997,-13.166 0,-8.225
0.79,-9.938 6.099,-13.219 1.579,-0.976 4.127,-3.737 5.661,-6.135 2.08,-3.252 3.697,-4.761 6.362,-5.94 2.656,-1.175 4.281,-2.688 6.335,-5.9 3.886,-6.074 3.424,-5.964 25.028,-5.964 h
19.19 L 85.138,235.056 88,231.712 V 156.194 80.677 L 90.338,78.338 92.677,76 h 70.123 70.123 l 2.339,2.338 m 86.076,10.849 c 0.932,0.652 2.66,2.835 3.841,4.85 1.358,2.316 3.706,4.661
6.386,6.375 2.668,1.707 5.028,4.059 6.37,6.35 1.351,2.304 3.808,4.747 6.699,6.659 2.986,1.975 5.056,4.057 5.982,6.019 0.931,1.974 2.907,3.954 5.777,5.79 5.555,3.554 6.007,4.486
6.007,12.394 0,7.692 1.453,10.49 6.498,12.508 6.7,2.681 6.302,-0.492 6.302,50.268 0,49.329 0.013,49.2 -4.858,49.2 -0.848,0 -2.982,1.44 -4.742,3.2 l -3.2,3.2 v 6.853 c 0,8.251
-0.422,9.144 -6.007,12.717 -2.87,1.836 -4.846,3.816 -5.777,5.79 -0.926,1.962 -2.996,4.044 -5.982,6.019 -2.914,1.928 -5.347,4.353 -6.726,6.705 -1.369,2.336 -3.61,4.578 -6.122,6.124
-2.538,1.561 -4.957,3.991 -6.725,6.755 -3.884,6.072 -6.146,6.96 -9.153,3.595 l -2.308,-2.583 v -13.48 c 0,-15.06 0.206,-15.714 6.099,-19.356 1.579,-0.976 4.076,-3.658 5.548,-5.959
1.659,-2.592 4.04,-4.982 6.262,-6.285 5.633,-3.3 6.891,-5.651 6.891,-12.871 0,-7.477 0.494,-8.467 5.972,-11.972 6.316,-4.04 6.028,-2.244 6.028,-37.652 0,-35.408 0.288,-33.612
-6.028,-37.652 -5.478,-3.505 -5.972,-4.495 -5.972,-11.972 0,-7.22 -1.258,-9.571 -6.891,-12.871 -2.222,-1.303 -4.603,-3.693 -6.262,-6.285 -1.472,-2.301 -3.969,-4.983 -5.548,-5.959
-5.89,-3.64 -6.099,-4.301 -6.099,-19.308 0,-16.348 2.137,-21.089 7.738,-17.166 M 284.504,140.2 c 0.871,0.99 2.563,3.337 3.761,5.215 1.465,2.297 3.223,3.833 5.371,4.693 5.248,2.1
6.364,4.217 6.364,12.076 0,7.918 1.127,10.134 6.866,13.497 6.037,3.538 5.934,3.107 5.934,24.719 0,21.612 0.103,21.181 -5.934,24.719 -5.739,3.363 -6.866,5.579 -6.866,13.497 0,7.097
-1.605,10.984 -4.535,10.984 -1.974,0 -5.617,3.003 -7.538,6.214 -3.819,6.385 -4.202,6.586 -12.528,6.586 -10.582,0 -12.199,-1.536 -12.199,-11.591 0,-8.307 0.42,-9.205 5.96,-12.749
2.772,-1.773 5.091,-4.085 6.488,-6.47 1.196,-2.041 3.536,-4.57 5.2,-5.62 1.663,-1.05 3.953,-3.127 5.088,-4.615 L 288,218.649 V 200.4 182.151 l -2.064,-2.706 c -1.135,-1.488
-3.425,-3.565 -5.088,-4.615 -1.664,-1.05 -4.004,-3.579 -5.2,-5.62 -1.397,-2.385 -3.716,-4.697 -6.488,-6.47 -5.54,-3.544 -5.96,-4.442 -5.96,-12.749 0,-10.055 1.617,-11.591
12.199,-11.591 6.798,0 7.674,0.173 9.105,1.8"
         id="path2-7"
         inkscape:connector-curvature="0"
         style="fill:#a1a1a1;fill-rule:evenodd;stroke:none" />
    </g>
  </g>
  <g
     style="display:block"
     id="media_player.ensuite"
     transform="matrix(0.02381784,0,0,0.02381784,121.5262,141.87054)"
     inkscape:label="media_player.ensuite">
    <g
       id="svgg-6">
      <path
         d=""
         id="path0-90"
         inkscape:connector-curvature="0"
         style="fill:#000000;fill-rule:evenodd;stroke:none" />
      <path
         d="M 90.338,78.338 88,80.677 v 75.517 75.518 l -2.862,3.344 -2.863,3.344 h -19.19 c -21.604,0 -21.142,-0.11 -25.028,5.964 -2.054,3.212 -3.679,4.725 -6.335,5.9 -2.665,1.179
-4.282,2.688 -6.362,5.94 -1.534,2.398 -4.082,5.159 -5.661,6.135 -5.309,3.281 -6.099,4.994 -6.099,13.219 0,8.058 0.259,8.544 6.997,13.166 1.428,0.979 3.543,3.394 4.698,5.367
1.312,2.237 3.696,4.605 6.34,6.297 2.68,1.714 5.028,4.059 6.386,6.375 3.613,6.166 3.076,6.037 25.218,6.037 22.161,0 20.474,0.456 24.75,-6.685 1.016,-1.697 3.73,-4.29 6.031,-5.762
2.624,-1.679 4.982,-4.039 6.326,-6.332 1.178,-2.011 3.653,-4.619 5.498,-5.795 1.846,-1.176 4.166,-2.851 5.156,-3.722 l 1.8,-1.583 v -69.316 -69.317 l 2.862,-3.344 2.863,-3.344 h
44.337 44.338 l 3.2,3.2 3.2,3.2 v 44 44 l -3.2,3.2 -3.2,3.2 h -19.253 c -21.642,0 -21.209,-0.102 -25.044,5.893 -1.982,3.098 -3.771,4.77 -6.61,6.177 -3.095,1.535 -4.268,2.715
-5.722,5.758 -1.359,2.846 -2.944,4.542 -6.177,6.61 -5.594,3.579 -5.994,4.445 -5.994,12.97 0,7.919 0.057,8.019 7.046,12.478 2.363,1.507 3.919,3.299 4.947,5.697 1.124,2.624 2.598,4.202
5.89,6.308 2.824,1.806 5.156,4.115 6.538,6.472 3.616,6.171 3.053,6.037 25.419,6.037 h 19.883 l 2.139,-2.292 c 1.176,-1.261 3.116,-3.769 4.311,-5.573 1.195,-1.805 3.575,-4.166
5.289,-5.248 1.713,-1.082 4.085,-3.622 5.271,-5.645 1.19,-2.031 3.658,-4.636 5.511,-5.816 1.846,-1.176 4.166,-2.851 5.156,-3.722 l 1.8,-1.583 V 181.799 80.677 L 235.262,78.338
232.923,76 H 162.8 92.677 l -2.339,2.338 m 225.333,12.123 c -2.048,2.434 -2.071,2.611 -2.071,15.892 0,15.007 0.209,15.668 6.099,19.308 1.579,0.976 4.076,3.658 5.548,5.959 1.659,2.592
4.04,4.982 6.262,6.285 5.633,3.3 6.891,5.651 6.891,12.871 0,7.477 0.494,8.467 5.972,11.972 6.316,4.04 6.028,2.244 6.028,37.652 0,35.408 0.288,33.612 -6.028,37.652 -5.478,3.505
-5.972,4.495 -5.972,11.972 0,7.22 -1.258,9.571 -6.891,12.871 -2.222,1.303 -4.603,3.693 -6.262,6.285 -1.472,2.301 -3.969,4.983 -5.548,5.959 -5.893,3.642 -6.099,4.296 -6.099,19.356 v
13.48 l 2.308,2.583 c 3.007,3.365 5.269,2.477 9.153,-3.595 1.768,-2.764 4.187,-5.194 6.725,-6.755 2.512,-1.546 4.753,-3.788 6.122,-6.124 1.379,-2.352 3.812,-4.777 6.726,-6.705
2.986,-1.975 5.056,-4.057 5.982,-6.019 0.931,-1.974 2.907,-3.954 5.777,-5.79 5.585,-3.573 6.007,-4.466 6.007,-12.717 V 256 l 3.2,-3.2 c 1.76,-1.76 3.894,-3.2 4.742,-3.2 4.871,0
4.858,0.129 4.858,-49.2 0,-50.76 0.398,-47.587 -6.302,-50.268 -5.045,-2.018 -6.498,-4.816 -6.498,-12.508 0,-7.908 -0.452,-8.84 -6.007,-12.394 -2.87,-1.836 -4.846,-3.816 -5.777,-5.79
-0.926,-1.962 -2.996,-4.044 -5.982,-6.019 -2.891,-1.912 -5.348,-4.355 -6.699,-6.659 -1.342,-2.291 -3.702,-4.643 -6.37,-6.35 -2.68,-1.714 -5.028,-4.059 -6.386,-6.375 -3.75,-6.399
-6.319,-7.365 -9.508,-3.576 m -50.133,50.277 c -2.223,2.224 -2.338,2.678 -2.338,9.253 0,8.307 0.42,9.205 5.96,12.749 2.772,1.773 5.091,4.085 6.488,6.47 1.196,2.041 3.536,4.57
5.2,5.62 1.663,1.05 3.953,3.127 5.088,4.615 l 2.064,2.706 v 18.249 18.249 l -2.064,2.706 c -1.135,1.488 -3.425,3.565 -5.088,4.615 -1.664,1.05 -4.004,3.579 -5.2,5.62 -1.397,2.385
-3.716,4.697 -6.488,6.47 -5.54,3.544 -5.96,4.442 -5.96,12.749 0,10.055 1.617,11.591 12.199,11.591 8.326,0 8.709,-0.201 12.528,-6.586 1.921,-3.211 5.564,-6.214 7.538,-6.214 2.93,0
4.535,-3.887 4.535,-10.984 0,-7.918 1.127,-10.134 6.866,-13.497 6.037,-3.538 5.934,-3.107 5.934,-24.719 0,-21.612 0.103,-21.181 -5.934,-24.719 -5.739,-3.363 -6.866,-5.579
-6.866,-13.497 0,-7.859 -1.116,-9.976 -6.364,-12.076 -2.148,-0.86 -3.906,-2.396 -5.371,-4.693 -4.465,-7.003 -4.488,-7.015 -12.866,-7.015 -7.247,0 -7.608,0.085 -9.861,2.338"
         id="path1-8"
         inkscape:connector-curvature="0"
         style="fill:#ffffff;fill-rule:evenodd;stroke:none" class="ha-leave-me-alone" />
      <path
         d="M 44,3.179 V 6.358 L 31.8,6.579 19.6,6.8 19.136,12.197 c -0.567,6.599 -0.34,6.372 -6.939,6.939 L 6.8,19.6 6.579,31.8 6.358,44 H 3.179 0 v 156 156 h 3.2 3.2 v 11.84 c
0,13.816 -0.028,13.76 6.924,13.76 h 5.003 l 0.432,2.6 c 0.237,1.43 0.523,4.04 0.636,5.8 0.118,1.848 0.627,3.242 1.205,3.3 0.55,0.055 6.04,0.145 12.2,0.2 l 11.2,0.1 v 3.2 3.2 h 156
156 v -3.18 -3.179 l 12.6,-0.221 12.6,-0.22 0.234,-5.766 0.235,-5.765 5.765,-0.235 5.766,-0.234 0.22,-12.6 0.221,-12.6 H 396.82 400 V 200 44 h -3.2 -3.2 l -0.1,-11.2 c -0.055,-6.16
-0.145,-11.65 -0.2,-12.2 -0.058,-0.578 -1.452,-1.087 -3.3,-1.205 -1.76,-0.113 -4.37,-0.399 -5.8,-0.636 l -2.6,-0.432 V 13.324 C 381.6,6.372 381.656,6.4 367.84,6.4 H 356 V 3.2 0 H 200
44 v 3.179 m 191.262,75.159 2.338,2.339 v 101.122 101.122 l -1.8,1.583 c -0.99,0.871 -3.31,2.546 -5.156,3.722 -1.853,1.18 -4.321,3.785 -5.511,5.816 -1.186,2.023 -3.558,4.563
-5.271,5.645 -1.714,1.082 -4.094,3.443 -5.289,5.248 -1.195,1.804 -3.135,4.312 -4.311,5.573 l -2.139,2.292 H 188.24 c -22.366,0 -21.803,0.134 -25.419,-6.037 -1.382,-2.357
-3.714,-4.666 -6.538,-6.472 -3.292,-2.106 -4.766,-3.684 -5.89,-6.308 -1.028,-2.398 -2.584,-4.19 -4.947,-5.697 -6.989,-4.459 -7.046,-4.559 -7.046,-12.478 0,-8.525 0.4,-9.391
5.994,-12.97 3.233,-2.068 4.818,-3.764 6.177,-6.61 1.454,-3.043 2.627,-4.223 5.722,-5.758 2.839,-1.407 4.628,-3.079 6.61,-6.177 3.835,-5.995 3.402,-5.893 25.044,-5.893 H 207.2 l
3.2,-3.2 3.2,-3.2 v -44 -44 l -3.2,-3.2 -3.2,-3.2 h -44.338 -44.337 l -2.863,3.344 -2.862,3.344 v 69.317 69.316 l -1.8,1.583 c -0.99,0.871 -3.31,2.546 -5.156,3.722 -1.845,1.176
-4.32,3.784 -5.498,5.795 -1.344,2.293 -3.702,4.653 -6.326,6.332 -2.301,1.472 -5.015,4.065 -6.031,5.762 -4.276,7.141 -2.589,6.685 -24.75,6.685 -22.142,0 -21.605,0.129 -25.218,-6.037
-1.358,-2.316 -3.706,-4.661 -6.386,-6.375 -2.644,-1.692 -5.028,-4.06 -6.34,-6.297 -1.155,-1.973 -3.27,-4.388 -4.698,-5.367 -6.738,-4.622 -6.997,-5.108 -6.997,-13.166 0,-8.225
0.79,-9.938 6.099,-13.219 1.579,-0.976 4.127,-3.737 5.661,-6.135 2.08,-3.252 3.697,-4.761 6.362,-5.94 2.656,-1.175 4.281,-2.688 6.335,-5.9 3.886,-6.074 3.424,-5.964 25.028,-5.964 h
19.19 L 85.138,235.056 88,231.712 V 156.194 80.677 L 90.338,78.338 92.677,76 h 70.123 70.123 l 2.339,2.338 m 86.076,10.849 c 0.932,0.652 2.66,2.835 3.841,4.85 1.358,2.316 3.706,4.661
6.386,6.375 2.668,1.707 5.028,4.059 6.37,6.35 1.351,2.304 3.808,4.747 6.699,6.659 2.986,1.975 5.056,4.057 5.982,6.019 0.931,1.974 2.907,3.954 5.777,5.79 5.555,3.554 6.007,4.486
6.007,12.394 0,7.692 1.453,10.49 6.498,12.508 6.7,2.681 6.302,-0.492 6.302,50.268 0,49.329 0.013,49.2 -4.858,49.2 -0.848,0 -2.982,1.44 -4.742,3.2 l -3.2,3.2 v 6.853 c 0,8.251
-0.422,9.144 -6.007,12.717 -2.87,1.836 -4.846,3.816 -5.777,5.79 -0.926,1.962 -2.996,4.044 -5.982,6.019 -2.914,1.928 -5.347,4.353 -6.726,6.705 -1.369,2.336 -3.61,4.578 -6.122,6.124
-2.538,1.561 -4.957,3.991 -6.725,6.755 -3.884,6.072 -6.146,6.96 -9.153,3.595 l -2.308,-2.583 v -13.48 c 0,-15.06 0.206,-15.714 6.099,-19.356 1.579,-0.976 4.076,-3.658 5.548,-5.959
1.659,-2.592 4.04,-4.982 6.262,-6.285 5.633,-3.3 6.891,-5.651 6.891,-12.871 0,-7.477 0.494,-8.467 5.972,-11.972 6.316,-4.04 6.028,-2.244 6.028,-37.652 0,-35.408 0.288,-33.612
-6.028,-37.652 -5.478,-3.505 -5.972,-4.495 -5.972,-11.972 0,-7.22 -1.258,-9.571 -6.891,-12.871 -2.222,-1.303 -4.603,-3.693 -6.262,-6.285 -1.472,-2.301 -3.969,-4.983 -5.548,-5.959
-5.89,-3.64 -6.099,-4.301 -6.099,-19.308 0,-16.348 2.137,-21.089 7.738,-17.166 M 284.504,140.2 c 0.871,0.99 2.563,3.337 3.761,5.215 1.465,2.297 3.223,3.833 5.371,4.693 5.248,2.1
6.364,4.217 6.364,12.076 0,7.918 1.127,10.134 6.866,13.497 6.037,3.538 5.934,3.107 5.934,24.719 0,21.612 0.103,21.181 -5.934,24.719 -5.739,3.363 -6.866,5.579 -6.866,13.497 0,7.097
-1.605,10.984 -4.535,10.984 -1.974,0 -5.617,3.003 -7.538,6.214 -3.819,6.385 -4.202,6.586 -12.528,6.586 -10.582,0 -12.199,-1.536 -12.199,-11.591 0,-8.307 0.42,-9.205 5.96,-12.749
2.772,-1.773 5.091,-4.085 6.488,-6.47 1.196,-2.041 3.536,-4.57 5.2,-5.62 1.663,-1.05 3.953,-3.127 5.088,-4.615 L 288,218.649 V 200.4 182.151 l -2.064,-2.706 c -1.135,-1.488
-3.425,-3.565 -5.088,-4.615 -1.664,-1.05 -4.004,-3.579 -5.2,-5.62 -1.397,-2.385 -3.716,-4.697 -6.488,-6.47 -5.54,-3.544 -5.96,-4.442 -5.96,-12.749 0,-10.055 1.617,-11.591
12.199,-11.591 6.798,0 7.674,0.173 9.105,1.8"
         id="path2-2"
         inkscape:connector-curvature="0"
         style="fill:#a1a1a1;fill-rule:evenodd;stroke:none" />
    </g>
  </g> </svg>

